<mxfile host="app.diagrams.net" modified="2021-10-10T02:18:31.158Z" agent="5.0 (Windows NT 10.0; Win64; x64) AppleWebKit/537.36 (KHTML, like Gecko) Chrome/92.0.4515.131 Safari/537.36" etag="3XB8VUDd_6XykSNOL--M" version="15.2.9" type="github">
  <diagram id="z3INYqTiJihS4eR_vdnP" name="Page-1">
    <mxGraphModel dx="2377" dy="835" grid="1" gridSize="10" guides="1" tooltips="1" connect="1" arrows="1" fold="1" page="1" pageScale="1" pageWidth="827" pageHeight="1169" math="0" shadow="0">
      <root>
        <mxCell id="0" />
        <mxCell id="1" parent="0" />
        <mxCell id="JMKbWyHFVlR689hvUI58-1" value="AbstractOwnableSynchronizer&lt;br&gt;(A)" style="rounded=0;whiteSpace=wrap;html=1;hachureGap=4;pointerEvents=0;fontSize=14;fillColor=#fff2cc;strokeColor=#d6b656;" parent="1" vertex="1">
          <mxGeometry x="435" y="110" width="210" height="40" as="geometry" />
        </mxCell>
        <mxCell id="JMKbWyHFVlR689hvUI58-3" style="edgeStyle=none;curved=1;rounded=0;orthogonalLoop=1;jettySize=auto;html=1;exitX=0.5;exitY=0;exitDx=0;exitDy=0;entryX=0.5;entryY=1;entryDx=0;entryDy=0;fontSize=14;endArrow=classic;startSize=8;endSize=8;sourcePerimeterSpacing=8;targetPerimeterSpacing=8;endFill=1;" parent="1" source="JMKbWyHFVlR689hvUI58-2" target="JMKbWyHFVlR689hvUI58-1" edge="1">
          <mxGeometry relative="1" as="geometry" />
        </mxCell>
        <mxCell id="JMKbWyHFVlR689hvUI58-2" value="AbstractQueuedSynchronizer&lt;br&gt;(A)" style="rounded=0;whiteSpace=wrap;html=1;hachureGap=4;pointerEvents=0;fontSize=14;fillColor=#fff2cc;strokeColor=#d6b656;" parent="1" vertex="1">
          <mxGeometry x="435" y="200" width="210" height="40" as="geometry" />
        </mxCell>
        <mxCell id="JMKbWyHFVlR689hvUI58-5" style="edgeStyle=orthogonalEdgeStyle;rounded=0;orthogonalLoop=1;jettySize=auto;html=1;exitX=0.5;exitY=0;exitDx=0;exitDy=0;entryX=0.5;entryY=1;entryDx=0;entryDy=0;fontSize=14;endArrow=classic;endFill=1;startSize=8;endSize=8;sourcePerimeterSpacing=8;targetPerimeterSpacing=8;" parent="1" source="JMKbWyHFVlR689hvUI58-4" target="JMKbWyHFVlR689hvUI58-2" edge="1">
          <mxGeometry relative="1" as="geometry" />
        </mxCell>
        <mxCell id="JMKbWyHFVlR689hvUI58-4" value="$.Sync&lt;br&gt;(A)" style="rounded=0;whiteSpace=wrap;html=1;hachureGap=4;pointerEvents=0;fontSize=14;fillColor=#fff2cc;strokeColor=#d6b656;" parent="1" vertex="1">
          <mxGeometry x="500" y="310" width="80" height="40" as="geometry" />
        </mxCell>
        <mxCell id="JMKbWyHFVlR689hvUI58-8" style="edgeStyle=orthogonalEdgeStyle;rounded=0;orthogonalLoop=1;jettySize=auto;html=1;exitX=0.5;exitY=0;exitDx=0;exitDy=0;entryX=0.5;entryY=1;entryDx=0;entryDy=0;fontSize=14;endArrow=classic;endFill=1;startSize=8;endSize=8;sourcePerimeterSpacing=8;targetPerimeterSpacing=8;" parent="1" source="JMKbWyHFVlR689hvUI58-6" target="JMKbWyHFVlR689hvUI58-4" edge="1">
          <mxGeometry relative="1" as="geometry" />
        </mxCell>
        <mxCell id="JMKbWyHFVlR689hvUI58-6" value="$.NonfairSync&lt;br&gt;(C)" style="rounded=0;whiteSpace=wrap;html=1;hachureGap=4;pointerEvents=0;fontSize=14;fillColor=#d5e8d4;strokeColor=#82b366;" parent="1" vertex="1">
          <mxGeometry x="380" y="460" width="120" height="40" as="geometry" />
        </mxCell>
        <mxCell id="JMKbWyHFVlR689hvUI58-9" style="edgeStyle=orthogonalEdgeStyle;rounded=0;orthogonalLoop=1;jettySize=auto;html=1;exitX=0.5;exitY=0;exitDx=0;exitDy=0;fontSize=14;endArrow=classic;endFill=1;startSize=8;endSize=8;sourcePerimeterSpacing=8;targetPerimeterSpacing=8;" parent="1" source="JMKbWyHFVlR689hvUI58-7" edge="1">
          <mxGeometry relative="1" as="geometry">
            <mxPoint x="540" y="350" as="targetPoint" />
          </mxGeometry>
        </mxCell>
        <mxCell id="JMKbWyHFVlR689hvUI58-7" value="$.FairSync&lt;br&gt;(C)" style="rounded=0;whiteSpace=wrap;html=1;hachureGap=4;pointerEvents=0;fontSize=14;fillColor=#d5e8d4;strokeColor=#82b366;" parent="1" vertex="1">
          <mxGeometry x="580" y="460" width="120" height="40" as="geometry" />
        </mxCell>
        <mxCell id="JMKbWyHFVlR689hvUI58-10" value="ReadWriteLock&lt;br&gt;(I)" style="rounded=0;whiteSpace=wrap;html=1;hachureGap=4;pointerEvents=0;fontSize=14;fillColor=#ffe6cc;strokeColor=#d79b00;" parent="1" vertex="1">
          <mxGeometry x="-152.5" y="200" width="110" height="40" as="geometry" />
        </mxCell>
        <mxCell id="JMKbWyHFVlR689hvUI58-12" style="edgeStyle=orthogonalEdgeStyle;rounded=0;orthogonalLoop=1;jettySize=auto;html=1;exitX=0.5;exitY=0;exitDx=0;exitDy=0;entryX=0.5;entryY=1;entryDx=0;entryDy=0;fontSize=14;endArrow=classic;endFill=1;startSize=8;endSize=8;sourcePerimeterSpacing=8;targetPerimeterSpacing=8;" parent="1" source="JMKbWyHFVlR689hvUI58-11" target="JMKbWyHFVlR689hvUI58-10" edge="1">
          <mxGeometry relative="1" as="geometry" />
        </mxCell>
        <mxCell id="JMKbWyHFVlR689hvUI58-11" value="ReentrantReadWriteLock&lt;br&gt;(C)" style="rounded=0;whiteSpace=wrap;html=1;hachureGap=4;pointerEvents=0;fontSize=14;fillColor=#d5e8d4;strokeColor=#82b366;" parent="1" vertex="1">
          <mxGeometry x="-180" y="300" width="165" height="40" as="geometry" />
        </mxCell>
        <mxCell id="F8OvXrk1lopOBBPOOBBY-5" style="edgeStyle=orthogonalEdgeStyle;rounded=0;orthogonalLoop=1;jettySize=auto;html=1;exitX=0.5;exitY=0;exitDx=0;exitDy=0;entryX=0.5;entryY=1;entryDx=0;entryDy=0;" edge="1" parent="1" source="F8OvXrk1lopOBBPOOBBY-1" target="F8OvXrk1lopOBBPOOBBY-4">
          <mxGeometry relative="1" as="geometry" />
        </mxCell>
        <mxCell id="F8OvXrk1lopOBBPOOBBY-12" style="edgeStyle=orthogonalEdgeStyle;rounded=0;orthogonalLoop=1;jettySize=auto;html=1;exitX=0.75;exitY=1;exitDx=0;exitDy=0;dashed=1;strokeColor=#FF0000;" edge="1" parent="1" source="F8OvXrk1lopOBBPOOBBY-1">
          <mxGeometry relative="1" as="geometry">
            <mxPoint x="500" y="330" as="targetPoint" />
            <Array as="points">
              <mxPoint x="90" y="370" />
              <mxPoint x="330" y="370" />
              <mxPoint x="330" y="330" />
            </Array>
          </mxGeometry>
        </mxCell>
        <mxCell id="F8OvXrk1lopOBBPOOBBY-1" value="$.ReadLock&lt;br&gt;(C)" style="rounded=0;whiteSpace=wrap;html=1;hachureGap=4;pointerEvents=0;fontSize=14;fillColor=#d5e8d4;strokeColor=#82b366;" vertex="1" parent="1">
          <mxGeometry x="30" y="300" width="80" height="40" as="geometry" />
        </mxCell>
        <mxCell id="F8OvXrk1lopOBBPOOBBY-2" value="ReadWriteLock&lt;br&gt;(I)" style="rounded=0;whiteSpace=wrap;html=1;hachureGap=4;pointerEvents=0;fontSize=14;fillColor=#ffe6cc;strokeColor=#d79b00;" vertex="1" parent="1">
          <mxGeometry x="-152.5" y="200" width="110" height="40" as="geometry" />
        </mxCell>
        <mxCell id="F8OvXrk1lopOBBPOOBBY-8" style="edgeStyle=orthogonalEdgeStyle;rounded=0;orthogonalLoop=1;jettySize=auto;html=1;exitX=0.5;exitY=1;exitDx=0;exitDy=0;entryX=0.25;entryY=1;entryDx=0;entryDy=0;dashed=1;" edge="1" parent="1" source="F8OvXrk1lopOBBPOOBBY-3" target="F8OvXrk1lopOBBPOOBBY-1">
          <mxGeometry relative="1" as="geometry">
            <Array as="points">
              <mxPoint x="-97" y="370" />
              <mxPoint x="50" y="370" />
            </Array>
          </mxGeometry>
        </mxCell>
        <mxCell id="F8OvXrk1lopOBBPOOBBY-9" style="edgeStyle=orthogonalEdgeStyle;rounded=0;orthogonalLoop=1;jettySize=auto;html=1;exitX=0.5;exitY=1;exitDx=0;exitDy=0;entryX=0.25;entryY=1;entryDx=0;entryDy=0;dashed=1;" edge="1" parent="1" source="F8OvXrk1lopOBBPOOBBY-3" target="F8OvXrk1lopOBBPOOBBY-6">
          <mxGeometry relative="1" as="geometry">
            <Array as="points">
              <mxPoint x="-97" y="410" />
              <mxPoint x="170" y="410" />
            </Array>
          </mxGeometry>
        </mxCell>
        <mxCell id="F8OvXrk1lopOBBPOOBBY-11" style="edgeStyle=orthogonalEdgeStyle;rounded=0;orthogonalLoop=1;jettySize=auto;html=1;exitX=0.5;exitY=1;exitDx=0;exitDy=0;entryX=0;entryY=0.5;entryDx=0;entryDy=0;dashed=1;strokeColor=#FF0000;" edge="1" parent="1" source="F8OvXrk1lopOBBPOOBBY-3" target="JMKbWyHFVlR689hvUI58-4">
          <mxGeometry relative="1" as="geometry">
            <Array as="points">
              <mxPoint x="-97" y="470" />
              <mxPoint x="330" y="470" />
              <mxPoint x="330" y="330" />
            </Array>
          </mxGeometry>
        </mxCell>
        <mxCell id="F8OvXrk1lopOBBPOOBBY-3" value="ReentrantReadWriteLock&lt;br&gt;(C)" style="rounded=0;whiteSpace=wrap;html=1;hachureGap=4;pointerEvents=0;fontSize=14;fillColor=#d5e8d4;strokeColor=#82b366;" vertex="1" parent="1">
          <mxGeometry x="-180" y="300" width="165" height="40" as="geometry" />
        </mxCell>
        <mxCell id="F8OvXrk1lopOBBPOOBBY-4" value="Lock&lt;br&gt;(I)" style="rounded=0;whiteSpace=wrap;html=1;hachureGap=4;pointerEvents=0;fontSize=14;fillColor=#ffe6cc;strokeColor=#d79b00;" vertex="1" parent="1">
          <mxGeometry x="100" y="200" width="60" height="40" as="geometry" />
        </mxCell>
        <mxCell id="F8OvXrk1lopOBBPOOBBY-7" style="edgeStyle=orthogonalEdgeStyle;rounded=0;orthogonalLoop=1;jettySize=auto;html=1;exitX=0.5;exitY=0;exitDx=0;exitDy=0;entryX=0.5;entryY=1;entryDx=0;entryDy=0;" edge="1" parent="1" source="F8OvXrk1lopOBBPOOBBY-6" target="F8OvXrk1lopOBBPOOBBY-4">
          <mxGeometry relative="1" as="geometry" />
        </mxCell>
        <mxCell id="F8OvXrk1lopOBBPOOBBY-13" style="edgeStyle=orthogonalEdgeStyle;rounded=0;orthogonalLoop=1;jettySize=auto;html=1;exitX=0.75;exitY=1;exitDx=0;exitDy=0;entryX=0;entryY=0.5;entryDx=0;entryDy=0;dashed=1;strokeColor=#FF0000;" edge="1" parent="1" source="F8OvXrk1lopOBBPOOBBY-6" target="JMKbWyHFVlR689hvUI58-4">
          <mxGeometry relative="1" as="geometry">
            <Array as="points">
              <mxPoint x="210" y="370" />
              <mxPoint x="330" y="370" />
              <mxPoint x="330" y="330" />
            </Array>
          </mxGeometry>
        </mxCell>
        <mxCell id="F8OvXrk1lopOBBPOOBBY-6" value="$.WriteLock&lt;br&gt;(C)" style="rounded=0;whiteSpace=wrap;html=1;hachureGap=4;pointerEvents=0;fontSize=14;fillColor=#d5e8d4;strokeColor=#82b366;" vertex="1" parent="1">
          <mxGeometry x="150" y="300" width="80" height="40" as="geometry" />
        </mxCell>
        <mxCell id="F8OvXrk1lopOBBPOOBBY-10" value="&lt;font style=&quot;font-size: 12px&quot;&gt;内部引用&lt;/font&gt;" style="edgeLabel;html=1;align=center;verticalAlign=middle;resizable=0;points=[];fontSize=14;" vertex="1" connectable="0" parent="1">
          <mxGeometry x="-20" y="400" as="geometry" />
        </mxCell>
        <mxCell id="F8OvXrk1lopOBBPOOBBY-14" value="&lt;font style=&quot;font-size: 12px&quot;&gt;内部引用&lt;/font&gt;" style="edgeLabel;html=1;align=center;verticalAlign=middle;resizable=0;points=[];fontSize=14;" vertex="1" connectable="0" parent="1">
          <mxGeometry x="-20" y="360" as="geometry" />
        </mxCell>
        <mxCell id="F8OvXrk1lopOBBPOOBBY-15" value="内部引用同一个Sync实例" style="text;html=1;align=center;verticalAlign=middle;resizable=0;points=[];autosize=1;strokeColor=none;fillColor=none;" vertex="1" parent="1">
          <mxGeometry x="330" y="310" width="150" height="20" as="geometry" />
        </mxCell>
      </root>
    </mxGraphModel>
  </diagram>
</mxfile>
